# xmcd CD database file generated by OrangeCD 5.1
#
# Track frame offsets:
#	182
#	11305
#	25617
#	38407
#	52515
#	65555
#	78092
#	91715
#	105400
#	117520
#	131287
#	145430
#	155467
#	169160
#	188090
#
# Disc length: 2676 seconds
#
# Revision: 0
# Processed by: cddbd v1.5PL3 Copyright (c) Steve Scherf et al.
# Submitted via: OrangeCD 5.1
#
DISCID=a50a720f
DTITLE=Various Artist - Legendary Blues Classics Vol. 1
DYEAR=1991
DGENRE=Blues
TTITLE0=Rock 'Em Dead
TTITLE1=Say Man
TTITLE2=Keep it to Yourself
TTITLE3=Sharing You
TTITLE4=Dust My Broom
TTITLE5=Walking by Myself
TTITLE6=Who's Cheating Who?
TTITLE7=One Bourbon, One Scotch, One Beer
TTITLE8=How Many More Years
TTITLE9=Walking the Blues
TTITLE10=My Time After a While
TTITLE11=Don't Keep My Waiting
TTITLE12=Black Angel Blues
TTITLE13=Baby What You Want Me to Do
TTITLE14=Eisenhower Blues
EXTD=
EXTT0=
EXTT1=
EXTT2=
EXTT3=
EXTT4=
EXTT5=
EXTT6=
EXTT7=
EXTT8=
EXTT9=
EXTT10=
EXTT11=
EXTT12=
EXTT13=
EXTT14=
PLAYORDER=
